<svg xmlns="http://www.w3.org/2000/svg" xmlns:xlink="http://www.w3.org/1999/xlink" viewBox="0 0 680.9538 93.26363"><defs><style>.a{fill:none;}.b{fill:#fff;}.c{clip-path:url(#a);}</style><clipPath id="a" transform="translate(-0.69679 -2.11858)"><rect class="a" width="127.52145" height="96.34952"/></clipPath></defs><title>Skadebyrån Logotyp ljus</title><path class="b" d="M165.094,62.26777h1.68066s.08008,14.40039,14.71973,14.40039c5.68066,0,10.001-3.68067,10.001-8.80078,0-3.67969-3.68066-6.79981-9.20019-9.67969l-7.68066-3.91992c-4.63965-2.40039-8.87989-7.12012-8.87989-13.2002,0-6.64062,5.51953-11.9209,13.28028-11.9209a14.93425,14.93425,0,0,1,9.75976,3.28028,6.83109,6.83109,0,0,0,2.32031-3.67969h1.59961V46.34687h-1.67968c-.55957-6.39941-2.96-14-12.24024-14-4.48047,0-7.75976,3.12012-7.75976,7.12012,0,4.16015,2.7998,6.32031,9.75976,9.91992l7.60059,3.9209c6.16015,3.12011,8.40039,7.75976,8.40039,12.16015,0,8.71973-7.041,14.40039-15.28125,14.40039-6.08008,0-9.91992-3.20019-12.47949-3.76074a6.769,6.769,0,0,0-2.32032,3.76074H165.094Z" transform="translate(-0.69679 -2.11858)"/><path class="b" d="M202.21407,76.82831c6.63965,0,7.59961-1.36035,7.59961-9.36035V41.467c0-8-.96-9.28028-7.59961-9.28028V30.507h21.60059v1.67968c-6.64062,0-7.60059,1.28028-7.60059,9.28028V52.66718l16.4004-14c5.04-4.32031,5.36035-6.48047.32031-6.48047V30.507h18.56054v1.67968c-6.16015,0-9.041,1.68067-14.64062,6.48047l-14,12,24.7998,21.52051c2.96094,2.56055,8.16016,4.64062,10.32032,4.64062V78.508H235.49435V76.82831c5.28027,0,6.24023-1.91992,3.04-4.64062L218.29415,54.66718l-2.08008,1.68067V67.468c0,8,.96,9.36035,7.60059,9.36035V78.508H202.21407Z" transform="translate(-0.69679 -2.11858)"/><path class="b" d="M260.53341,76.82831c6.71973,0,7.12012-1.36035,9.59961-6.96093l17.60059-40.72071h1.04l17.68066,40.72071c2.47949,5.60058,2.87988,6.96093,9.52051,6.96093V78.508H293.81368V76.82831c6.64063,0,8.16016-1.68066,6.24024-6.08007l-3.83985-8.88086H276.85372l-3.83984,8.88086c-1.9209,4.31933-.40039,6.08007,6.23926,6.08007V78.508H260.53341Zm34.32031-17.92089-8.40039-19.28028L278.134,58.90742Z" transform="translate(-0.69679 -2.11858)"/><path class="b" d="M317.97286,76.82831c6.63965,0,7.59961-1.36035,7.59961-9.36035V41.467c0-8-.96-9.28028-7.59961-9.28028V30.507h21.68067c18.63965,0,26.7207,10.7998,26.7207,24,0,13.20117-8.08105,24.001-26.7207,24.001H317.97286ZM339.73361,75.548c15.59961,0,18.96-11.68066,18.96-21.041,0-9.35938-3.36035-21.04-18.96-21.04h-7.76075V66.26777c0,8,.87989,9.28027,7.44043,9.28027Z" transform="translate(-0.69679 -2.11858)"/><path class="b" d="M375.0129,76.82831c6.63965,0,7.59961-1.36035,7.59961-9.36035V41.467c0-8-.96-9.28028-7.59961-9.28028V30.507h36.48047l.71973,10.56054h-1.67969L410.133,39.467c-1.11914-4.16016-1.91992-6-9.2793-6H389.0129V51.62714h4c8,0,9.28028-.96,9.28028-7.67968h1.68066V62.26777h-1.68066c0-6.72071-1.28028-7.68067-9.28028-7.68067h-4V66.26777c0,8,.96,9.28027,7.60059,9.28027h6.87988c7.36035,0,8.24024-1.83984,9.28028-6.08008l.40039-1.60058h1.67968L414.21407,78.508H375.0129Z" transform="translate(-0.69679 -2.11858)"/><path class="b" d="M421.65255,76.82831c6.63965,0,7.59961-1.36035,7.59961-9.36035V41.467c0-8-.96-9.28028-7.59961-9.28028V30.507h21.52051c10.16016,0,15.44043,5.36035,15.44043,12,0,4.16015-2.56055,7.76074-6.24024,9.91992,6.16016,1.9209,10.24024,6.88086,10.24024,12.64062,0,7.44043-6.08008,13.44043-17.2002,13.44043H421.65255ZM442.77267,51.467c6,0,8.80078-4,8.80078-8.96s-2.80078-9.04-8.80078-9.04h-7.12012v18Zm2.56055,24.081c6.96,0,10.24023-4.71973,10.24023-10.48047,0-5.83984-3.28027-10.63965-10.24023-10.63965h-9.68067V66.26777c0,8,.96,9.28027,7.60059,9.28027Z" transform="translate(-0.69679 -2.11858)"/><path class="b" d="M479.25118,76.82831c6.63965,0,7.59961-1.36035,7.59961-9.36035V59.70722L473.57052,39.14667c-3.43945-5.27929-5.91992-6.96-11.59961-6.96V30.507h22.79981v1.67968c-6.71973,0-6.71973,2.40039-4.31934,6.08008l11.51953,17.60059,11.68066-17.60059c2.79981-4.31933,2.4004-6.08008-4.32031-6.08008V30.507H518.052v1.67968c-6.71973,0-8.4004,2.24024-11.60059,6.96l-13.2002,20.001V67.468c0,8,.96,9.36035,7.60059,9.36035V78.508H479.25118Z" transform="translate(-0.69679 -2.11858)"/><path class="b" d="M522.051,76.82831c6.63965,0,7.59961-1.36035,7.59961-9.36035V41.467c0-8-.96-9.28028-7.59961-9.28028V30.507h21.12012c11.12011,0,17.20019,6.08007,17.20019,13.5205,0,6.96-5.20019,12.4795-14.24023,13.44043l7.84082,9.2002c4.71972,5.59961,10.08008,9.59961,14.87988,10.16015V78.508h-13.2002l-15.84082-21.04H536.051v10c0,8,.96,9.36035,7.60058,9.36035V78.508H522.051Zm21.04-22.24121c6.96,0,10.16015-4.71972,10.16015-10.55957,0-5.76074-3.20019-10.56054-10.16015-10.56054h-7.04V54.5871Z" transform="translate(-0.69679 -2.11858)"/><path class="b" d="M571.57052,76.82831c6.71973,0,7.12012-1.36035,9.59961-6.96093l17.60059-40.72071h1.04l17.68067,40.72071c2.47949,5.60058,2.87988,6.96093,9.52051,6.96093V78.508H604.85079V76.82831c6.64063,0,8.16016-1.68066,6.24024-6.08007l-3.83985-8.88086H587.89083L584.051,70.74824c-1.9209,4.31933-.40039,6.08007,6.23926,6.08007V78.508H571.57052Zm34.32031-17.92089-8.40039-19.28028-8.31933,19.28028ZM592.4504,17.8664a6.53881,6.53881,0,0,1,6.56055-6.55957,6.60022,6.60022,0,1,1-6.56055,6.55957Zm10.24024,0a3.68058,3.68058,0,0,0-7.35938,0,3.67969,3.67969,0,1,0,7.35938,0Z" transform="translate(-0.69679 -2.11858)"/><path class="b" d="M639.56954,39.62714V67.468c0,8,1.04,9.36035,7.68067,9.36035V78.508H629.01V76.82831c6.63965,0,7.59961-1.36035,7.59961-9.36035V41.467c0-8-.96-9.28028-7.59961-9.28028V30.507h11.28028L671.011,68.58808V41.467c0-8-.96-9.28028-7.60059-9.28028V30.507H681.6506v1.67968c-6.63965,0-7.67969,1.28028-7.67969,9.28028V79.86835h-1.83984Z" transform="translate(-0.69679 -2.11858)"/><g class="c"><g class="c"><path class="b" d="M82.67075,7.59066H68.79283V42.67633H82.67075c11.69555,0,17.15294-7.79671,17.15294-17.46486,0-9.66715-5.45739-17.62081-17.15294-17.62081" transform="translate(-0.69679 -2.11858)"/><path class="b" d="M68.79244,48.44633v23.0772c0,15.59441,1.87144,18.08868,14.81363,18.08868h4.05481c13.567,0,19.95912-9.1993,19.95912-20.427,0-11.38265-6.39212-20.73889-19.95912-20.73889Z" transform="translate(-0.69679 -2.11858)"/><path class="b" d="M122.30158,95.38221a4.275,4.275,0,0,0,4.27573-4.27474V6.43141a4.27589,4.27589,0,0,0-4.27573-4.27574H89.2973c15.97429,1.86545,24.24885,11.45562,24.24885,23.0562,0,8.10862-4.99052,15.12555-12.16341,19.33631,12.00746,3.7419,19.96011,13.41,19.96011,24.63674,0,14.50173-11.8505,26.19729-33.52612,26.19729" transform="translate(-0.69679 -2.11858)"/><path class="b" d="M.69679,63.27356h3.0651s.146,26.27126,26.85609,26.27126c10.362,0,18.24363-6.715,18.24363-16.05627,0-6.712-6.714-12.40434-16.78506-17.65879l-14.01187-7.1519C9.60017,44.29915,1.86445,35.68769,1.86445,24.596c0-12.11444,10.071-21.7476,24.22786-21.7476A27.245,27.245,0,0,1,43.89907,8.8326a12.45879,12.45879,0,0,0,4.23275-6.714H51.051V34.22812H47.98587C46.96416,22.55255,42.58446,8.68564,25.65444,8.68564c-8.17359,0-14.15683,5.69333-14.15683,12.99117,0,7.58877,5.1085,11.52961,17.80576,18.09767l13.86492,7.1519C54.408,52.6187,58.49377,61.08421,58.49377,69.11184c0,15.90732-12.84322,26.27026-27.87579,26.27026-11.09273,0-18.09867-5.83728-22.76929-6.86a12.34661,12.34661,0,0,0-4.23275,6.86H.69679Z" transform="translate(-0.69679 -2.11858)"/></g></g></svg>