<svg xmlns="http://www.w3.org/2000/svg" xmlns:xlink="http://www.w3.org/1999/xlink" viewBox="0 0 680.9724 93.292"><defs><style>.a{fill:none;}.b{fill:#254e61;}.c{clip-path:url(#a);}.d{fill:#244e61;}</style><clipPath id="a" transform="translate(-0.6675 -1.2957)"><rect class="a" width="127.5" height="96.3779"/></clipPath></defs><title>Skadebyrån Logotyp mörk</title><path class="b" d="M165.0832,62.282h1.6807s.08,14.4,14.72,14.4c5.6807,0,10.001-3.6806,10.001-8.8007,0-3.68-3.6807-6.8-9.2-9.68l-7.6807-3.92c-4.64-2.4-8.88-7.12-8.88-13.2,0-6.6407,5.52-11.9209,13.28-11.9209a14.9346,14.9346,0,0,1,9.76,3.28,6.8309,6.8309,0,0,0,2.32-3.68h1.6v17.6h-1.68c-.5595-6.4-2.96-14-12.24-14-4.4805,0-7.76,3.12-7.76,7.12,0,4.16,2.8,6.32,9.76,9.92l7.6006,3.9209c6.16,3.12,8.4,7.76,8.4,12.16,0,8.72-7.041,14.4-15.2813,14.4-6.08,0-9.92-3.2-12.48-3.7607a6.7692,6.7692,0,0,0-2.32,3.7607h-1.6006Z" transform="translate(-0.6675 -1.2957)"/><path class="b" d="M202.2034,76.8425c6.64,0,7.6-1.36,7.6-9.36V41.4812c0-8-.96-9.28-7.6-9.28v-1.68h21.6005v1.68c-6.6406,0-7.6005,1.28-7.6005,9.28v11.2l16.4-14c5.04-4.32,5.36-6.48.32-6.48v-1.68h18.56v1.68c-6.16,0-9.041,1.6807-14.6406,6.48l-14,12,24.8,21.5205c2.9609,2.5605,8.16,4.6406,10.32,4.6406v1.68h-22.48v-1.68c5.28,0,6.24-1.92,3.04-4.6406l-20.24-17.52-2.08,1.6806v11.12c0,8,.96,9.36,7.6005,9.36v1.68H202.2034Z" transform="translate(-0.6675 -1.2957)"/><path class="b" d="M260.5227,76.8425c6.72,0,7.12-1.36,9.6-6.9609l17.6006-40.7207h1.04l17.6807,40.7207c2.4795,5.6006,2.88,6.9609,9.52,6.9609v1.68H293.803v-1.68c6.6406,0,8.16-1.6807,6.24-6.08l-3.84-8.8808h-19.36l-3.84,8.8808c-1.9209,4.3194-.4,6.08,6.2392,6.08v1.68h-18.72Zm34.32-17.9209-8.4-19.28-8.3193,19.28Z" transform="translate(-0.6675 -1.2957)"/><path class="b" d="M317.9621,76.8425c6.64,0,7.6-1.36,7.6-9.36V41.4812c0-8-.96-9.28-7.6-9.28v-1.68h21.6807c18.64,0,26.7207,10.8,26.7207,24s-8.081,24.001-26.7207,24.001H317.9621Zm21.7608-1.28c15.6,0,18.96-11.6806,18.96-21.041s-3.36-21.04-18.96-21.04h-7.7608V66.282c0,8,.88,9.28,7.44,9.28Z" transform="translate(-0.6675 -1.2957)"/><path class="b" d="M375.0022,76.8425c6.64,0,7.6-1.36,7.6-9.36V41.4812c0-8-.96-9.28-7.6-9.28v-1.68h36.48l.72,10.5606h-1.68l-.4-1.6006c-1.1191-4.16-1.92-6-9.2793-6H389.0022v18.16h4c8,0,9.28-.96,9.28-7.68h1.6806v18.32h-1.6806c0-6.7207-1.28-7.6807-9.28-7.6807h-4V66.282c0,8,.96,9.28,7.6006,9.28h6.88c7.36,0,8.24-1.84,9.28-6.08l.4-1.6006h1.68l-.64,10.6406H375.0022Z" transform="translate(-0.6675 -1.2957)"/><path class="b" d="M421.6418,76.8425c6.64,0,7.6-1.36,7.6-9.36V41.4812c0-8-.96-9.28-7.6-9.28v-1.68h21.5205c10.16,0,15.44,5.36,15.44,12,0,4.16-2.5606,7.7608-6.24,9.92,6.16,1.9209,10.24,6.8809,10.24,12.6407,0,7.44-6.08,13.44-17.2,13.44H421.6418Zm21.12-25.3613c6,0,8.8008-4,8.8008-8.96s-2.8008-9.04-8.8008-9.04h-7.12v18Zm2.5606,24.081c6.96,0,10.24-4.72,10.24-10.48,0-5.84-3.28-10.64-10.24-10.64h-9.6807v11.84c0,8,.96,9.28,7.6006,9.28Z" transform="translate(-0.6675 -1.2957)"/><path class="b" d="M479.2405,76.8425c6.64,0,7.6-1.36,7.6-9.36V59.7214L473.56,39.1609c-3.44-5.2793-5.92-6.96-11.6-6.96v-1.68h22.8v1.68c-6.72,0-6.72,2.4-4.3193,6.08L491.96,55.8816,503.6409,38.281c2.8-4.3194,2.4-6.08-4.32-6.08v-1.68h18.7207v1.68c-6.72,0-8.4,2.24-11.6005,6.96l-13.2,20.0009v8.32c0,8,.96,9.36,7.6005,9.36v1.68H479.2405Z" transform="translate(-0.6675 -1.2957)"/><path class="b" d="M522.04,76.8425c6.64,0,7.6-1.36,7.6-9.36V41.4812c0-8-.96-9.28-7.6-9.28v-1.68h21.12c11.12,0,17.2,6.08,17.2,13.52,0,6.96-5.2,12.48-14.24,13.4405l7.8409,9.2c4.72,5.6,10.08,9.6,14.88,10.16v1.68h-13.2L539.8,57.4822h-3.76v10c0,8,.96,9.36,7.6006,9.36v1.68H522.04Zm21.04-22.2412c6.96,0,10.16-4.72,10.16-10.56,0-5.7607-3.2-10.56-10.16-10.56h-7.04v21.12Z" transform="translate(-0.6675 -1.2957)"/><path class="b" d="M571.56,76.8425c6.72,0,7.12-1.36,9.6-6.9609L598.76,29.1609h1.04l17.6807,40.7207c2.48,5.6006,2.88,6.9609,9.5205,6.9609v1.68H604.84v-1.68c6.6406,0,8.16-1.6807,6.24-6.08l-3.84-8.8808H587.88l-3.84,8.8808c-1.9209,4.3194-.4,6.08,6.2392,6.08v1.68H571.56Zm34.32-17.9209-8.4-19.28-8.3193,19.28Zm-13.44-41.041a6.5388,6.5388,0,0,1,6.56-6.56,6.6,6.6,0,1,1-6.56,6.56Zm10.24,0a3.6806,3.6806,0,0,0-7.3594,0,3.68,3.68,0,1,0,7.3594,0Z" transform="translate(-0.6675 -1.2957)"/><path class="b" d="M639.5588,39.6413V67.4822c0,8,1.04,9.36,7.6807,9.36v1.68h-18.24v-1.68c6.64,0,7.6-1.36,7.6-9.36V41.4812c0-8-.96-9.28-7.6-9.28v-1.68h11.28L671,68.6023V41.4812c0-8-.96-9.28-7.6006-9.28v-1.68h18.24v1.68c-6.64,0-7.68,1.28-7.68,9.28V79.8825h-1.84Z" transform="translate(-0.6675 -1.2957)"/><g class="c"><g class="c"><path class="d" d="M82.6655,6.77H68.7835v35.096h13.882c11.699,0,17.158-7.799,17.158-17.469S94.3645,6.77,82.6655,6.77" transform="translate(-0.6675 -1.2957)"/><path class="d" d="M68.7832,47.6376v23.084c0,15.599,1.872,18.094,14.818,18.094h4.056c13.571,0,19.965-9.203,19.965-20.434,0-11.386-6.394-20.744-19.965-20.744Z" transform="translate(-0.6675 -1.2957)"/><path class="d" d="M122.3081,94.5873a4.2772,4.2772,0,0,0,4.277-4.277V5.61a4.2772,4.2772,0,0,0-4.277-4.277H89.2941c15.979,1.866,24.256,11.459,24.256,23.063,0,8.11-4.992,15.129-12.167,19.341,12.011,3.744,19.966,13.415,19.966,24.644,0,14.507-11.854,26.206-33.536,26.206" transform="translate(-0.6675 -1.2957)"/><path class="d" d="M.6675,62.4687h3.066s.146,26.279,26.864,26.279c10.365,0,18.249-6.717,18.249-16.061,0-6.714-6.716-12.408-16.79-17.664l-14.016-7.154c-8.467-4.38-16.205-12.994-16.205-24.089,0-12.118,10.074-21.754,24.235-21.754a27.2531,27.2531,0,0,1,17.812,5.986,12.4625,12.4625,0,0,0,4.234-6.716h2.92v32.119h-3.066c-1.022-11.679-5.403-25.55-22.338-25.55-8.176,0-14.161,5.695-14.161,12.995,0,7.591,5.11,11.533,17.811,18.103l13.869,7.154c11.243,5.694,15.33,14.162,15.33,22.192,0,15.912-12.847,26.279-27.884,26.279-11.096,0-18.104-5.84-22.776-6.863a12.3533,12.3533,0,0,0-4.234,6.863H.6675Z" transform="translate(-0.6675 -1.2957)"/></g></g></svg>